<svg viewBox="0 0 469 137" version="1.1" xmlns="http://www.w3.org/2000/svg" xmlns:xlink="http://www.w3.org/1999/xlink">
    <defs>
        <polygon id="path-white-1" points="0 0.3814 101.4687 0.3814 101.4687 98 0 98"></polygon>
    </defs>
    <g stroke="none" stroke-width="1" fill="#ca1719" fill-rule="evenodd">
        <g id="OwnitRedLogo_Square_V4-white" transform="translate(-125.000000, -47.000000)">
            <g transform="translate(125.000000, 46.000000)">
                <polygon fill="#ca1719" points="344.226 135.692 370.818 135.692 370.818 41.92 344.226 41.92"></polygon>
                <g transform="translate(0.000000, 0.791000)">
                    <path d="M331.5058,134.9014 L331.5058,74.1954 C331.5058,63.3474 328.7348,54.8344 323.1948,48.6524 C317.6558,42.4714 309.8128,39.3814 299.6658,39.3814 C296.2848,39.3814 293.2518,39.7884 290.5688,40.6054 C287.8878,41.4224 285.4378,42.5294 283.2218,43.9284 C281.0048,45.3284 278.9938,46.9334 277.1858,48.7414 C275.3788,50.5474 273.7168,52.4444 272.2008,54.4254 L272.2008,41.1294 L245.6078,41.1294 L245.6078,134.9014 L272.2008,134.9014 L272.2008,82.5934 C272.2008,76.2944 273.6858,71.5414 276.6608,68.3324 C279.6348,65.1264 283.6898,63.5234 288.8188,63.5234 C293.9528,63.5234 297.9168,65.1264 300.7148,68.3324 C303.5148,71.5414 304.9138,76.2944 304.9138,82.5934 L304.9138,134.9014 L331.5058,134.9014 Z" id="Fill-2" fill="#ca1719"></path>
                    <polygon id="Fill-4" fill="#ca1719" points="239.1484 41.1289 212.7334 41.1289 197.3374 98.1609 179.4934 40.7799 156.5744 40.7799 138.9054 97.9859 123.8604 41.1289 96.9194 41.1289 125.7844 135.6019 149.5774 135.6019 167.9464 78.0439 185.9664 135.6019 209.9344 135.6019"></polygon>
                    <g transform="translate(0.000000, 39.000000)">
                        <path d="M101.4687,49.1904 L101.4687,48.8414 C101.4687,42.0774 100.1847,35.7494 97.6187,29.8584 C95.0527,23.9704 91.5247,18.8374 87.0357,14.4634 C82.5447,10.0894 77.2087,6.6494 71.0277,4.1424 C64.8457,1.6344 58.1397,0.3814 50.9087,0.3814 C43.5607,0.3814 36.7957,1.6644 30.6167,4.2294 C24.4327,6.7944 19.0697,10.2944 14.5197,14.7274 C9.9717,19.1574 6.4137,24.3184 3.8487,30.2094 C1.2827,36.0984 -0.0003,42.4244 -0.0003,49.1904 L-0.0003,49.5404 C-0.0003,56.3054 1.2827,62.6304 3.8487,68.5224 C6.4137,74.4124 9.9437,79.5444 14.4327,83.9174 C18.9247,88.2914 24.2597,91.7304 30.4407,94.2394 C36.6217,96.7464 43.3267,98.0004 50.5597,98.0004 C57.9067,98.0004 64.6727,96.7174 70.8527,94.1494 C77.0347,91.5864 82.3987,88.0864 86.9487,83.6544 C91.4967,79.2204 95.0527,74.0624 97.6187,68.1714 C100.1847,62.2824 101.4687,55.9564 101.4687,49.1904 L101.4687,49.1904 Z M75.2267,49.5404 C75.2267,53.0404 74.6727,56.3344 73.5637,59.4234 C72.4557,62.5154 70.8527,65.2274 68.7517,67.5594 C66.6537,69.8924 64.1157,71.7284 61.1417,73.0704 C58.1697,74.4124 54.7577,75.0834 50.9087,75.0834 C47.1767,75.0834 43.8227,74.3814 40.8497,72.9844 C37.8737,71.5824 35.2807,69.6874 33.0637,67.2964 C30.8487,64.9064 29.1567,62.1644 27.9917,59.0754 C26.8237,55.9844 26.2407,52.6884 26.2407,49.1904 L26.2407,48.8414 C26.2407,45.3404 26.7947,42.0464 27.9017,38.9564 C29.0117,35.8644 30.6167,33.1534 32.7157,30.8214 C34.8137,28.4884 37.3497,26.6514 40.3257,25.3104 C43.2987,23.9704 46.7097,23.2974 50.5597,23.2974 C54.1767,23.2974 57.4977,23.9984 60.5307,25.3974 C63.5627,26.7974 66.1857,28.6934 68.4037,31.0844 C70.6187,33.4744 72.3117,36.2134 73.4767,39.3054 C74.6447,42.3964 75.2267,45.6924 75.2267,49.1904 L75.2267,49.5404 Z" id="Fill-6" fill="#ca1719" mask="url(#mask-2)"></path>
                    </g>
                    <path d="M357.5234,0.209 C366.6734,0.209 374.0934,7.628 374.0934,16.781 C374.0934,25.932 366.6734,33.351 357.5234,33.351 C348.3704,33.351 340.9514,25.932 340.9514,16.781 C340.9514,7.628 348.3704,0.209 357.5234,0.209" id="Fill-9" fill="##ca1719"></path>
                    <path d="M431.8388,131.0518 L431.8388,109.7078 C427.7588,111.9228 423.3848,113.0328 418.7178,113.0328 C413.0028,113.0328 410.1448,109.9998 410.1448,103.9348 L410.1448,63.8728 L432.1878,63.8728 L432.1878,41.1288 L410.1448,41.1288 L410.1448,17.1618 L383.5538,17.1618 L383.5538,108.3108 C383.5538,113.7908 384.2258,118.3098 385.5668,121.8658 C386.9078,125.4258 388.7738,128.3108 391.1638,130.5268 C393.5548,132.7428 396.4118,134.2878 399.7368,135.1618 C403.0598,136.0378 406.7648,136.4748 410.8458,136.4748 C415.2768,136.4748 419.1848,135.9798 422.5678,134.9878 C425.9488,133.9968 429.0388,132.6858 431.8388,131.0518" id="Fill-11" fill="#ca1719"></path>
                    <path d="M454.5947,109 C462.3247,109 468.5937,115.269 468.5937,123.001 C468.5937,130.731 462.3247,137 454.5947,137 C446.8617,137 440.5937,130.731 440.5937,123.001 C440.5937,115.269 446.8617,109 454.5947,109" id="Fill-13" fill="#ca1719"></path>
                </g>
            </g>
        </g>
    </g>
</svg>